# xmcd CD database file
#
# Track frame offsets:
#	150
#	7517
#	75084
#	126030
#	138079
#	143989
#
# Disc length: 2968 seconds
#
# Revision: 0
# Processed by: cddbd v1.5.1PL2 Copyright (c) Steve Scherf et al.
# Submitted via: CDex 1.51
#
DISCID=360b9606
DTITLE=Miles Davis - Miles With Keith At Fillmore West
DYEAR=1970
DGENRE=Jazz
TTITLE0=Directions
TTITLE1=Honky Tonk
TTITLE2=What I Say
TTITLE3=Sanctuary
TTITLE4=Yesternow
TTITLE5=Call It Anythin'
EXTD=YEAR: 1970
EXTT0=
EXTT1=
EXTT2=
EXTT3=
EXTT4=
EXTT5=
PLAYORDER=
